<?xml version="1.0" encoding="UTF-8"?>
<svg width="28px" height="30px" viewBox="0 0 28 30" version="1.1" xmlns="http://www.w3.org/2000/svg" xmlns:xlink="http://www.w3.org/1999/xlink">
    <!-- Generator: Sketch 52.6 (67491) - http://www.bohemiancoding.com/sketch -->
    <title>Pocket Out</title>
    <desc>Created with Sketch.</desc>
    <g id="Page-1" stroke="none" stroke-width="1" fill="none" fill-rule="evenodd">
        <g id="iPhone-XS-Copy-6" transform="translate(-21.000000, -173.000000)">
            <g id="Group" transform="translate(21.000000, 166.985612)">
                <g id="Group-13" transform="translate(0.000000, 0.163389)">
                    <g id="Pocket-Out" transform="translate(0.000000, 6.583624)">
                        <g id="Group-11">
                            <g id="Pocket" transform="translate(0.352564, 6.451536)">
                                <path d="M6.8317552,0.569470753 L21.2317552,0.569470753 C22.9990664,0.569470753 24.4317552,2.00215955 24.4317552,3.76947075 L24.4317552,13.3694708 C24.4317552,16.9040932 21.5663776,19.7694708 18.0317552,19.7694708 L6.8317552,19.7694708 C3.2971328,19.7694708 0.431755202,16.9040932 0.431755202,13.3694708 L0.431755202,6.96947075 C0.431755202,3.43484835 3.2971328,0.569470753 6.8317552,0.569470753 Z" id="Rectangle" fill="#FFFFFF" opacity="0.297583444"></path>
                                <path d="M0.431755202,7.06415445 L23.6317552,7.06415445 C25.3990664,7.06415445 26.8317552,8.49684325 26.8317552,10.2641545 L26.8317552,19.0641545 C26.8317552,20.8314657 25.3990664,22.2641545 23.6317552,22.2641545 L6.8317552,22.2641545 C3.2971328,22.2641545 0.431755202,19.3987769 0.431755202,15.8641545 L0.431755202,7.06415445 Z" id="Rectangle" fill="#FFFFFF"></path>
                                <path d="M20.8317552,12.8364245 L26.8317552,12.8364245 L26.8317552,16.8364245 L20.8317552,16.8364245 C19.7271857,16.8364245 18.8317552,15.940994 18.8317552,14.8364245 L18.8317552,14.8364245 C18.8317552,13.731855 19.7271857,12.8364245 20.8317552,12.8364245 Z" id="Rectangle" fill="#7C7987" opacity="0.34736706"></path>
                            </g>
                            <path d="M9.37389409,4.76068661 C9.75416353,4.38041717 10.3697076,4.38102511 10.7493691,4.76068661 L12.9797665,6.99184389 L12.9798519,0.972711619 C12.9798519,0.434984477 13.4148364,-4.39204869e-13 13.9525636,-4.39204869e-13 C14.4902907,-4.39204869e-13 14.9252752,0.434984477 14.9252752,0.972711619 L14.9251897,6.99184389 L17.155739,4.76129456 C17.5357045,4.38132908 18.1512486,4.38132908 18.531214,4.76129456 C18.9111795,5.14126004 18.9111795,5.75680411 18.531214,6.13676958 L14.6403676,10.0276161 C14.2604021,10.4075815 13.644858,10.4075815 13.2648925,10.0276161 L9.37404607,6.13676958 C8.99392861,5.7546763 8.99392861,5.14065209 9.37389409,4.76068661 Z" id="Path" fill="#FFFFFF" transform="translate(13.952564, 5.156295) scale(1, -1) rotate(360.000000) translate(-13.952564, -5.156295) "></path>
                        </g>
                    </g>
                </g>
            </g>
        </g>
    </g>
</svg>