<?xml version="1.0" encoding="UTF-8"?>
<svg width="27px" height="30px" viewBox="0 0 27 30" version="1.1" xmlns="http://www.w3.org/2000/svg" xmlns:xlink="http://www.w3.org/1999/xlink">
    <!-- Generator: Sketch 52.6 (67491) - http://www.bohemiancoding.com/sketch -->
    <title>Pocket Out</title>
    <desc>Created with Sketch.</desc>
    <g id="Page-1" stroke="none" stroke-width="1" fill="none" fill-rule="evenodd">
        <g id="iPhone-XS-Copy-6" transform="translate(-162.000000, -173.000000)">
            <g id="Group" transform="translate(21.000000, 166.985612)">
                <g id="Group-13" transform="translate(140.500000, 0.163389)">
                    <g id="Pocket-In" transform="translate(0.000000, 6.583624)">
                        <g id="Group-11" transform="translate(0.363097, 0.000000)">
                            <g id="Pocket" transform="translate(0.340406, 6.451536)">
                                <path d="M6.81576427,0.569470753 L20.3268754,0.569470753 C22.0941866,0.569470753 23.5268754,2.00215955 23.5268754,3.76947075 L23.5268754,13.3694708 C23.5268754,16.9040932 20.6614978,19.7694708 17.1268754,19.7694708 L6.81576427,19.7694708 C3.28114187,19.7694708 0.415764268,16.9040932 0.415764268,13.3694708 L0.415764268,6.96947075 C0.415764268,3.43484835 3.28114187,0.569470753 6.81576427,0.569470753 Z" id="Rectangle" fill="#FFFFFF" opacity="0.297583444"></path>
                                <path d="M0.415764268,7.06415445 L22.6379865,7.06415445 C24.4052977,7.06415445 25.8379865,8.49684325 25.8379865,10.2641545 L25.8379865,19.0641545 C25.8379865,20.8314657 24.4052977,22.2641545 22.6379865,22.2641545 L6.81576427,22.2641545 C3.28114187,22.2641545 0.415764268,19.3987769 0.415764268,15.8641545 L0.415764268,7.06415445 Z" id="Rectangle" fill="#FFFFFF"></path>
                                <path d="M20.1342828,12.8364245 L25.8379865,12.8364245 L25.8379865,16.8364245 L20.1342828,16.8364245 C19.0297133,16.8364245 18.1342828,15.940994 18.1342828,14.8364245 L18.1342828,14.8364245 C18.1342828,13.731855 19.0297133,12.8364245 20.1342828,12.8364245 Z" id="Rectangle" fill="#7C7987" opacity="0.34736706"></path>
                            </g>
                            <path d="M9.05065636,4.76068661 C9.41781307,4.38041717 10.0121315,4.38102511 10.3787012,4.76068661 L12.5321883,6.99184389 L12.5322708,0.972711619 C12.5322708,0.434984477 12.9522559,-4.39204869e-13 13.4714407,-4.39204869e-13 C13.9906255,-4.39204869e-13 14.4106105,0.434984477 14.4106105,0.972711619 L14.410528,6.99184389 L16.5641618,4.76129456 C16.931025,4.38132908 17.5253434,4.38132908 17.8922067,4.76129456 C18.2590699,5.14126004 18.2590699,5.75680411 17.8922067,6.13676958 L14.1355273,10.0276161 C13.7686641,10.4075815 13.1743457,10.4075815 12.8074825,10.0276161 L9.0508031,6.13676958 C8.68379314,5.7546763 8.68379314,5.14065209 9.05065636,4.76068661 Z" id="Path" fill="#FFFFFF" transform="translate(13.471441, 5.156295) rotate(360.000000) translate(-13.471441, -5.156295) "></path>
                        </g>
                    </g>
                </g>
            </g>
        </g>
    </g>
</svg>