<?xml version="1.0" encoding="UTF-8"?>
<svg width="29px" height="23px" viewBox="0 0 29 23" version="1.1" xmlns="http://www.w3.org/2000/svg" xmlns:xlink="http://www.w3.org/1999/xlink">
    <!-- Generator: Sketch 52.6 (67491) - http://www.bohemiancoding.com/sketch -->
    <title>Combined Shape</title>
    <desc>Created with Sketch.</desc>
    <g id="Page-1" stroke="none" stroke-width="1" fill="none" fill-rule="evenodd">
        <g id="Logo" transform="translate(0.000000, 0.270860)" fill="#FFFFFF">
            <path d="M2.1877562,1.8525598 L2.1877562,22.6132195 L0.217797188,22.6132195 L0.217797188,0.386780488 L2.1877562,1.8525598 Z M6.12767421,4.78411843 L6.12767421,22.6132195 L4.1577152,22.6132195 L4.1577152,3.31833912 L6.12767421,4.78411843 Z M10.0675922,7.71567706 L10.0675922,22.6132195 L8.09763322,22.6132195 L8.09763322,6.24989774 L10.0675922,7.71567706 Z M14.0075102,10.6472357 L14.0075102,22.6132195 L12.0375512,22.6132195 L12.0375512,9.18145637 L14.0075102,10.6472357 Z M18.9404026,8.00288427 L28.7822028,8.00288427 L28.7822028,10.1698392 L16.0280867,10.1698392 L18.9404026,8.00288427 Z M24.5149,3.85509082 L28.7822028,3.85509082 L28.7822028,6.02204573 L21.6025842,6.02204573 L24.5149,3.85509082 Z M28.7822028,0.679936351 L28.7822028,1.87425229 L27.1770816,1.87425229 L28.7822028,0.679936351 Z M15.9774693,20.4462646 L28.7822028,20.4462646 L28.7822028,22.6132195 L15.9774693,22.6132195 L15.9774693,20.4462646 Z M15.9774693,16.2984712 L28.7822028,16.2984712 L28.7822028,18.4654261 L15.9774693,18.4654261 L15.9774693,16.2984712 Z M15.9774693,12.1506777 L28.7822028,12.1506777 L28.7822028,14.3176326 L15.9774693,14.3176326 L15.9774693,12.1506777 Z" id="Combined-Shape"></path>
        </g>
    </g>
</svg>