<?xml version="1.0" encoding="UTF-8"?>
<svg width="504px" height="146px" viewBox="0 0 504 146" version="1.1" xmlns="http://www.w3.org/2000/svg" xmlns:xlink="http://www.w3.org/1999/xlink">
    <!-- Generator: Sketch 52.6 (67491) - http://www.bohemiancoding.com/sketch -->
    <title>Artboard</title>
    <desc>Created with Sketch.</desc>
    <g id="Artboard" stroke="none" stroke-width="1" fill="none" fill-rule="evenodd">
        <g id="Logo" transform="translate(0.000000, 1.756617)" fill="#000C33">
            <path d="M11.3159803,9.58498332 L11.3159803,116.998831 L1.12653718,116.998831 L1.12653718,2.00116861 L11.3159803,9.58498332 Z M31.6948666,24.7526127 L31.6948666,116.998831 L21.5054235,116.998831 L21.5054235,17.168798 L31.6948666,24.7526127 Z M52.0737529,39.9202422 L52.0737529,116.998831 L41.8843098,116.998831 L41.8843098,32.3364275 L52.0737529,39.9202422 Z M72.4526392,55.0878716 L72.4526392,116.998831 L62.2631961,116.998831 L62.2631961,47.5040569 L72.4526392,55.0878716 Z M97.9675995,41.4062273 L148.873463,41.4062273 L148.873463,52.6178636 L82.9038967,52.6178636 L97.9675995,41.4062273 Z M126.801207,19.9459047 L148.873463,19.9459047 L148.873463,31.157541 L111.737504,31.157541 L126.801207,19.9459047 Z M148.873463,3.51793155 L148.873463,9.69721835 L140.571112,9.69721835 L148.873463,3.51793155 Z M82.6420824,105.787195 L148.873463,105.787195 L148.873463,116.998831 L82.6420824,116.998831 L82.6420824,105.787195 Z M82.6420824,84.3268725 L148.873463,84.3268725 L148.873463,95.5385088 L82.6420824,95.5385088 L82.6420824,84.3268725 Z M82.6420824,62.8665499 L148.873463,62.8665499 L148.873463,74.0781862 L82.6420824,74.0781862 L82.6420824,62.8665499 Z" id="Combined-Shape"></path>
        </g>
        <path d="M223.633688,86.68 C223.633688,92.0533602 222.853696,96.9716443 221.293688,101.435 C219.73368,105.898356 217.480369,109.711651 214.533688,112.875 C211.587007,116.038349 208.055375,118.486658 203.938688,120.22 C199.822001,121.953342 195.207047,122.82 190.093688,122.82 C185.066996,122.82 180.495375,121.953342 176.378688,120.22 C172.262001,118.486658 168.730369,116.038349 165.783688,112.875 C162.837007,109.711651 160.540363,105.898356 158.893688,101.435 C157.247013,96.9716443 156.423688,92.0533602 156.423688,86.68 C156.423688,81.3066398 157.26868,76.4100221 158.958688,71.99 C160.648697,67.5699779 162.988673,63.8000156 165.978688,60.68 C168.968703,57.5599844 172.522001,55.133342 176.638688,53.4 C180.755375,51.666658 185.24033,50.8 190.093688,50.8 C195.033713,50.8 199.562001,51.666658 203.678688,53.4 C207.795375,55.133342 211.327007,57.5599844 214.273688,60.68 C217.220369,63.8000156 219.517013,67.5699779 221.163688,71.99 C222.810363,76.4100221 223.633688,81.3066398 223.633688,86.68 Z M203.873688,86.68 C203.873688,80.6999701 202.682033,75.9983505 200.298688,72.575 C197.915343,69.1516496 194.51371,67.44 190.093688,67.44 C185.673666,67.44 182.250367,69.1516496 179.823688,72.575 C177.397009,75.9983505 176.183688,80.6999701 176.183688,86.68 C176.183688,92.6600299 177.397009,97.4049825 179.823688,100.915 C182.250367,104.425018 185.673666,106.18 190.093688,106.18 C194.51371,106.18 197.915343,104.425018 200.298688,100.915 C202.682033,97.4049825 203.873688,92.6600299 203.873688,86.68 Z M234.081726,54.96 C237.375076,54.0066619 241.6217,53.1183374 246.821726,52.295 C252.021752,51.4716626 257.481697,51.06 263.201726,51.06 C269.008422,51.06 273.84004,51.8183257 277.696726,53.335 C281.553412,54.8516743 284.608381,56.9966528 286.861726,59.77 C289.115071,62.5433472 290.718388,65.8366476 291.671726,69.65 C292.625064,73.4633524 293.101726,77.7099766 293.101726,82.39 L293.101726,121 L273.731726,121 L273.731726,84.73 C273.731726,78.4899688 272.908401,74.070013 271.261726,71.47 C269.615051,68.869987 266.538415,67.57 262.031726,67.57 C260.645052,67.57 259.171734,67.6349993 257.611726,67.765 C256.051718,67.8950007 254.665065,68.0466658 253.451726,68.22 L253.451726,121 L234.081726,121 L234.081726,54.96 Z M302.899764,87.33 C302.899764,81.263303 303.831421,75.9550227 305.694764,71.405 C307.558107,66.8549773 310.006416,63.0633485 313.039764,60.03 C316.073113,56.9966515 319.561411,54.7000078 323.504764,53.14 C327.448117,51.5799922 331.499743,50.8 335.659764,50.8 C345.366479,50.8 353.036403,53.7683036 358.669764,59.705 C364.303126,65.6416963 367.119764,74.3732757 367.119764,85.9 C367.119764,87.0266723 367.076431,88.2616599 366.989764,89.605 C366.903097,90.94834 366.816431,92.1399948 366.729764,93.18 L322.789764,93.18 C323.2231,97.1666866 325.086414,100.329988 328.379764,102.67 C331.673114,105.010012 336.09307,106.18 341.639764,106.18 C345.193115,106.18 348.681414,105.855003 352.104764,105.205 C355.528115,104.554997 358.323087,103.753338 360.489764,102.8 L363.089764,118.53 C362.049759,119.050003 360.663106,119.569997 358.929764,120.09 C357.196422,120.610003 355.268108,121.064998 353.144764,121.455 C351.02142,121.845002 348.746443,122.169999 346.319764,122.43 C343.893085,122.690001 341.466443,122.82 339.039764,122.82 C332.8864,122.82 327.534787,121.910009 322.984764,120.09 C318.434741,118.269991 314.664779,115.778349 311.674764,112.615 C308.684749,109.451651 306.474771,105.703355 305.044764,101.37 C303.614757,97.036645 302.899764,92.3566918 302.899764,87.33 Z M348.399764,79.92 C348.313097,78.2733251 348.031433,76.6700078 347.554764,75.11 C347.078095,73.5499922 346.341436,72.1633394 345.344764,70.95 C344.348092,69.7366606 343.091438,68.7400039 341.574764,67.96 C340.05809,67.1799961 338.173109,66.79 335.919764,66.79 C333.753087,66.79 331.889772,67.1583296 330.329764,67.895 C328.769756,68.6316703 327.469769,69.6066606 326.429764,70.82 C325.389759,72.0333394 324.5881,73.4416587 324.024764,75.045 C323.461428,76.6483413 323.049765,78.2733251 322.789764,79.92 L348.399764,79.92 Z M438.277802,52.62 C434.377783,65.7933992 430.30449,78.1432757 426.057802,89.67 C421.811114,101.196724 417.174494,112.376612 412.147802,123.21 C410.327793,127.110019 408.507811,130.424986 406.687802,133.155 C404.867793,135.885014 402.87448,138.138324 400.707802,139.915 C398.541125,141.691676 396.092816,142.991663 393.362802,143.815 C390.632788,144.638337 387.44782,145.05 383.807802,145.05 C380.774454,145.05 377.979482,144.768336 375.422802,144.205 C372.866123,143.641664 370.764477,143.013337 369.117802,142.32 L372.497802,126.85 C374.491145,127.543337 376.267794,128.019999 377.827802,128.28 C379.38781,128.540001 381.03446,128.67 382.767802,128.67 C386.234486,128.67 388.899459,127.738343 390.762802,125.875 C392.626145,124.011657 394.207796,121.43335 395.507802,118.14 C391.08778,109.47329 386.667824,99.7450539 382.247802,88.955 C377.82778,78.164946 373.667822,66.0534005 369.767802,52.62 L390.307802,52.62 C391.174473,56.0000169 392.192796,59.6616469 393.362802,63.605 C394.532808,67.548353 395.767796,71.5349798 397.067802,75.565 C398.367809,79.5950201 399.689462,83.5166476 401.032802,87.33 C402.376142,91.1433524 403.654463,94.6099844 404.867802,97.73 C405.994474,94.6099844 407.164463,91.1433524 408.377802,87.33 C409.591141,83.5166476 410.782796,79.5950201 411.952802,75.565 C413.122808,71.5349798 414.249463,67.548353 415.332802,63.605 C416.416141,59.6616469 417.391131,56.0000169 418.257802,52.62 L438.277802,52.62 Z M439.10584,87.33 C439.10584,81.263303 440.037497,75.9550227 441.90084,71.405 C443.764183,66.8549773 446.212492,63.0633485 449.24584,60.03 C452.279189,56.9966515 455.767487,54.7000078 459.71084,53.14 C463.654193,51.5799922 467.705819,50.8 471.86584,50.8 C481.572555,50.8 489.242479,53.7683036 494.87584,59.705 C500.509202,65.6416963 503.32584,74.3732757 503.32584,85.9 C503.32584,87.0266723 503.282507,88.2616599 503.19584,89.605 C503.109173,90.94834 503.022507,92.1399948 502.93584,93.18 L458.99584,93.18 C459.429176,97.1666866 461.29249,100.329988 464.58584,102.67 C467.87919,105.010012 472.299146,106.18 477.84584,106.18 C481.399191,106.18 484.88749,105.855003 488.31084,105.205 C491.734191,104.554997 494.529163,103.753338 496.69584,102.8 L499.29584,118.53 C498.255835,119.050003 496.869182,119.569997 495.13584,120.09 C493.402498,120.610003 491.474184,121.064998 489.35084,121.455 C487.227496,121.845002 484.952519,122.169999 482.52584,122.43 C480.099161,122.690001 477.672519,122.82 475.24584,122.82 C469.092476,122.82 463.740863,121.910009 459.19084,120.09 C454.640817,118.269991 450.870855,115.778349 447.88084,112.615 C444.890825,109.451651 442.680847,105.703355 441.25084,101.37 C439.820833,97.036645 439.10584,92.3566918 439.10584,87.33 Z M484.60584,79.92 C484.519173,78.2733251 484.237509,76.6700078 483.76084,75.11 C483.284171,73.5499922 482.547512,72.1633394 481.55084,70.95 C480.554168,69.7366606 479.297514,68.7400039 477.78084,67.96 C476.264166,67.1799961 474.379185,66.79 472.12584,66.79 C469.959163,66.79 468.095848,67.1583296 466.53584,67.895 C464.975832,68.6316703 463.675845,69.6066606 462.63584,70.82 C461.595835,72.0333394 460.794176,73.4416587 460.23084,75.045 C459.667504,76.6483413 459.255841,78.2733251 458.99584,79.92 L484.60584,79.92 Z" id="oneye" fill="#000000"></path>
    </g>
</svg>