<?xml version="1.0" encoding="UTF-8"?>
<svg width="668px" height="595px" viewBox="0 0 668 595" version="1.1" xmlns="http://www.w3.org/2000/svg" xmlns:xlink="http://www.w3.org/1999/xlink">
    <!-- Generator: Sketch 52.6 (67491) - http://www.bohemiancoding.com/sketch -->
    <title>book-saved-svgrepo-com</title>
    <desc>Created with Sketch.</desc>
    <g id="Symbols" stroke="none" stroke-width="1" fill="none" fill-rule="evenodd">
        <g id="book-saved-svgrepo-com" transform="translate(0.448869, -2.532568)" fill="#292D32">
            <path d="M308.333333,99.9376667 L308.333333,563.603333 C308.333333,587.27 284.333333,603.603333 262.666667,594.603333 C200.666667,568.603333 123.666667,545.936667 69,538.603333 L58.6666667,537.27 C26.3333333,533.27 0,503.603333 0,471.27 L0,74.9376667 C0,34.9376667 32.3333333,2.604 72.3333333,2.604 L74.6666667,2.604 C137.333333,7.93733333 229.666667,37.271 290.666667,70.271 C301.666667,76.271 308.333333,87.2706667 308.333333,99.9376667 Z" id="Path"></path>
            <path d="M594.333333,2.604 L592.333333,2.604 C584.333333,3.27066667 575.666667,4.271 566.666667,5.93766667 C525.666667,12.6043333 477,26.6043333 433.333333,43.9376667 C412.666667,52.271 393.333333,61.271 376.333333,70.271 C365.333333,76.271 358.333333,87.6043333 358.333333,99.9376667 L358.333333,563.603333 C358.333333,587.27 382.333333,603.603333 404,594.603333 C466,568.603333 543,545.936667 597.666667,538.603333 L608,537.27 C640.333333,533.27 666.666667,503.603333 666.666667,471.27 L666.666667,74.9376667 C666.666667,34.9376667 634.333333,2.604 594.333333,2.604 Z" id="Shape" fill-rule="nonzero"></path>
        </g>
    </g>
</svg>