<?xml version="1.0" encoding="UTF-8"?>
<svg width="23px" height="20px" viewBox="0 0 23 20" version="1.1" xmlns="http://www.w3.org/2000/svg" xmlns:xlink="http://www.w3.org/1999/xlink">
    <!-- Generator: Sketch 52.6 (67491) - http://www.bohemiancoding.com/sketch -->
    <title>Group 4</title>
    <desc>Created with Sketch.</desc>
    <g id="Page-1" stroke="none" stroke-width="1" fill="none" fill-rule="evenodd">
        <g id="iPhone-XS-Copy-6" transform="translate(-41.000000, -755.000000)" fill="#3860E1">
            <g id="Group-7" transform="translate(-5.500000, 737.102357)">
                <g id="Group-4" transform="translate(47.201933, 17.897643)">
                    <path d="M19.3427987,7.61985814 L7.07056035,7.61985814 L7.07056035,10.0170321 C7.07056035,10.4257585 6.82841552,10.7957829 6.45363902,10.9588967 C6.07903377,11.1220962 5.64277919,11.0478601 5.34395123,10.7702669 L0.549003996,6.31781591 C0.130259542,5.92848332 0.130259542,5.20085007 0.549003996,4.81126061 L5.34395123,0.358809609 C5.64295044,0.0812164134 6.07903377,0.0069375433 6.45363902,0.170179809 C6.86634698,0.332951143 7.11037554,0.705415794 7.11037554,1.11213007 L7.11037554,3.47107286 L19.3427987,3.47103625 C20.4884625,3.47103283 21.4172093,4.39977407 21.4172128,5.54543789 C21.4172128,5.54543996 21.4172128,5.54544203 21.4172128,5.54544409 L21.4172128,5.54544409 C21.4172128,6.69111134 20.488466,7.61985814 19.3427987,7.61985814 Z" id="Path"></path>
                    <path d="M19.3427987,16.3165921 L7.07056035,16.3165921 L7.07056035,18.7137661 C7.07056035,19.1224925 6.82841552,19.4925169 6.45363902,19.6556307 C6.07903377,19.8188301 5.64277919,19.7445941 5.34395123,19.4670009 L0.549003996,15.0145499 C0.130259542,14.6252173 0.130259542,13.8975841 0.549003996,13.5079946 L5.34395123,9.05554359 C5.64295044,8.7779504 6.07903377,8.70367153 6.45363902,8.86691379 C6.86634698,9.02968513 7.11037554,9.40214978 7.11037554,9.80886405 L7.11037554,12.1678068 L19.3427987,12.1677702 C20.4884625,12.1677668 21.4172093,13.0965081 21.4172128,14.2421719 C21.4172128,14.2421739 21.4172128,14.242176 21.4172128,14.2421781 L21.4172128,14.2421781 C21.4172128,15.3878453 20.488466,16.3165921 19.3427987,16.3165921 Z" id="Path" opacity="0.646695818" transform="translate(10.826080, 14.261263) scale(-1, 1) translate(-10.826080, -14.261263) "></path>
                </g>
            </g>
        </g>
    </g>
</svg>